# xmcd
#
# Track frame offsets:
#	150
#	31357
#	51637
#	72217
#	91440
#	113295
#	137080
#	158060
#	178870
#
# Disc length: 2651 seconds
#
# Revision: 1
# Processed by: cddbd v1.5.1PL2 Copyright (c) Steve Scherf et al.
# Submitted via: audiograbber 1.81.02
#
DISCID=770a5909
DTITLE=Viola - none like you
DYEAR=2006
DGENRE=
TTITLE0=Praise Him - Only In The Name Of Jesus
TTITLE1=Let Me Be There Too
TTITLE2=Shout To The Lord
TTITLE3=Unfailing Love
TTITLE4=Heart Open Wide
TTITLE5=Still I Wonder
TTITLE6=Have Faith In God
TTITLE7=There Is None Like You
TTITLE8=Min Älskade Jesus (My Beautiful Jesus)
EXTD=
EXTT0=
EXTT1=
EXTT2=
EXTT3=
EXTT4=
EXTT5=
EXTT6=
EXTT7=
EXTT8=
PLAYORDER=
